<svg viewBox="0 0 120 120" xmlns="http://www.w3.org/2000/svg">
  <g fill="none" stroke-width="4" stroke-linecap="round" stroke-linejoin="round">
    
    <path d="M 85 110 L 75 85 C 75 85, 105 75, 100 35 C 95 5, 40 5, 25 35 L 10 60 L 25 60 L 25 85 L 50 85 L 55 75" stroke="#F9CA61"/>
    <path d="M 38 110 L 42 88 L 39 85" stroke="#F9CA61"/>

    <rect x="50" y="35" width="24" height="24" rx="2" stroke="#F9CA61"/>
    <rect x="57" y="42" width="10" height="10" rx="1" stroke="#F9CA61"/>
    
    <g stroke="#F9CA61">
      <path d="M 56 35 V 25 H 48"/>
      <path d="M 68 35 V 27 H 76"/>
      <path d="M 62 22 V 26"/> 
      <path d="M 74 43 H 84"/>
      <path d="M 74 51 H 80"/>
      <path d="M 84 51 H 88"/> 
      <path d="M 56 59 V 65 H 64"/>
      <path d="M 68 59 V 67"/>
      <path d="M 68 71 V 75"/> 
      <path d="M 50 51 H 40"/>
      <path d="M 32 51 H 36"/> 
      <path d="M 50 43 H 42 V 33 H 36"/>
    </g>
    
  </g>
</svg>